<svg version="1.1" id="Layer_1" xmlns="http://www.w3.org/2000/svg" xmlns:xlink="http://www.w3.org/1999/xlink" x="0px" y="0px"
	 width="100%" viewBox="0 0 832 1248" enable-background="new 0 0 832 1248" xml:space="preserve">
<path fill="#000000" opacity="1.000000" stroke="none" 
	d="
M833.000000,690.000000 
	C833.000000,876.293030 833.000000,1062.586060 833.000000,1248.939575 
	C555.766907,1248.939575 278.533752,1248.939575 1.000000,1248.939575 
	C1.000000,1060.974243 1.000000,872.948364 1.314125,684.155029 
	C6.165365,684.823792 4.219325,680.970581 4.147785,679.750916 
	C3.681248,671.797119 2.893380,663.861023 2.118613,655.928040 
	C2.020668,654.925171 1.386001,653.974731 0.999999,653.000000 
	C1.000000,435.711578 1.000000,218.423126 1.000000,1.067348 
	C278.231140,1.067348 555.462280,1.067348 833.000000,1.067348 
	C833.000000,188.025726 833.000000,375.051636 832.634766,562.824402 
	C831.302917,559.752747 830.336365,555.934204 829.369751,552.115662 
	C829.062683,555.766357 829.431641,559.310059 830.001221,562.821167 
	C830.932007,568.558594 831.993591,574.274841 833.000000,580.000000 
	C833.000000,611.025818 833.000000,642.051697 832.638794,673.634583 
	C831.494141,679.588196 830.710754,684.984741 829.921692,690.420227 
	C831.109314,690.258118 832.054626,690.129028 833.000000,690.000000 
M523.071472,551.321594 
	C503.602875,503.351776 484.101929,455.394958 464.741394,407.381561 
	C463.507080,404.320526 462.167206,403.078796 458.699982,403.103119 
	C433.377258,403.280823 408.052277,403.295776 382.729431,403.136261 
	C378.933258,403.112366 377.277710,404.499268 375.935486,407.890198 
	C363.622620,438.996948 351.226929,470.071564 338.692841,501.089905 
	C307.695282,577.800110 276.608704,654.474426 245.570709,731.168335 
	C243.618195,735.992859 241.775864,740.862000 239.657913,746.284851 
	C241.024078,745.917114 241.661697,745.827942 242.230576,745.580566 
	C274.281982,731.642883 306.446564,717.952209 336.854126,700.541382 
	C339.950592,698.768372 341.856598,696.728760 343.166565,693.414062 
	C365.677307,636.453308 388.310974,579.541199 410.908051,522.614563 
	C413.936279,514.985840 416.912079,507.336334 420.379578,498.506165 
	C436.428345,538.685608 451.954254,577.556091 467.454132,616.361267 
	C468.312317,616.149292 468.699066,616.163330 468.931183,615.980774 
	C488.553070,600.546631 508.190186,585.131287 527.690857,569.545349 
	C528.636719,568.789368 529.006226,566.312073 528.563416,565.001465 
	C527.074890,560.595398 525.097168,556.354675 523.071472,551.321594 
M574.785400,603.313293 
	C623.107300,546.264832 660.140625,482.747650 684.715393,412.031189 
	C683.237549,412.480835 682.393860,413.346954 681.762512,414.347107 
	C678.481873,419.543732 675.333679,424.825165 671.997620,429.985443 
	C644.444397,472.605591 613.161865,512.311340 578.493713,549.357239 
	C522.746765,608.927612 459.933472,659.780945 390.295013,702.289062 
	C321.966553,743.997620 250.014145,778.035950 174.696960,805.049377 
	C164.106827,808.847717 164.112061,808.865112 164.086075,819.894348 
	C164.076660,823.893555 164.070190,827.892700 164.067932,831.891907 
	C164.064865,837.304382 164.067169,842.716858 164.067169,848.166992 
	C203.378525,848.166992 242.020630,848.129700 280.662292,848.241699 
	C283.573944,848.250122 284.255249,846.641846 285.075256,844.587402 
	C290.258942,831.600342 295.374786,818.584167 300.784790,805.691650 
	C301.623627,803.692688 303.541046,801.551575 305.493073,800.702820 
	C340.212952,785.604858 373.795013,768.318726 405.945465,748.335144 
	C469.487549,708.839783 526.145752,661.272705 574.785400,603.313293 
M537.772095,797.831177 
	C543.952271,813.456665 550.138306,829.079895 556.305969,844.710327 
	C557.180115,846.925598 557.918701,848.486572 561.114807,848.456543 
	C587.428162,848.209778 613.744263,848.264160 640.059570,848.207031 
	C641.287720,848.204346 642.515442,848.008972 643.977295,847.883179 
	C617.556641,783.162537 591.301880,718.848267 565.167908,654.829895 
	C544.414612,673.933105 523.888184,692.827454 503.075409,711.985413 
	C514.419373,740.084106 525.934814,768.607727 537.772095,797.831177 
z"/>
<path fill="#EBECEC" opacity="1.000000" stroke="none" 
	d="
M0.999999,653.468628 
	C1.386001,653.974731 2.020668,654.925171 2.118613,655.928040 
	C2.893380,663.861023 3.681248,671.797119 4.147785,679.750916 
	C4.219325,680.970581 6.165365,684.823792 1.314125,683.693848 
	C1.000000,673.979126 1.000000,663.958191 0.999999,653.468628 
z"/>
<path fill="#D5D6D4" opacity="1.000000" stroke="none" 
	d="
M833.000000,579.532410 
	C831.993591,574.274841 830.932007,568.558594 830.001221,562.821167 
	C829.431641,559.310059 829.062683,555.766357 829.369751,552.115662 
	C830.336365,555.934204 831.302917,559.752747 832.634766,563.285645 
	C833.000000,568.354919 833.000000,573.709900 833.000000,579.532410 
z"/>
<path fill="#DADADA" opacity="1.000000" stroke="none" 
	d="
M833.000000,689.533142 
	C832.054626,690.129028 831.109314,690.258118 829.921692,690.420227 
	C830.710754,684.984741 831.494141,679.588196 832.638794,674.095825 
	C833.000000,679.022095 833.000000,684.044189 833.000000,689.533142 
z"/>
<path fill="#F9F9F9" opacity="1.000000" stroke="none" 
	d="
M523.189026,551.686157 
	C525.097168,556.354675 527.074890,560.595398 528.563416,565.001465 
	C529.006226,566.312073 528.636719,568.789368 527.690857,569.545349 
	C508.190186,585.131287 488.553070,600.546631 468.931183,615.980774 
	C468.699066,616.163330 468.312317,616.149292 467.454132,616.361267 
	C451.954254,577.556091 436.428345,538.685608 420.379578,498.506165 
	C416.912079,507.336334 413.936279,514.985840 410.908051,522.614563 
	C388.310974,579.541199 365.677307,636.453308 343.166565,693.414062 
	C341.856598,696.728760 339.950592,698.768372 336.854126,700.541382 
	C306.446564,717.952209 274.281982,731.642883 242.230576,745.580566 
	C241.661697,745.827942 241.024078,745.917114 239.657913,746.284851 
	C241.775864,740.862000 243.618195,735.992859 245.570709,731.168335 
	C276.608704,654.474426 307.695282,577.800110 338.692841,501.089905 
	C351.226929,470.071564 363.622620,438.996948 375.935486,407.890198 
	C377.277710,404.499268 378.933258,403.112366 382.729431,403.136261 
	C408.052277,403.295776 433.377258,403.280823 458.699982,403.103119 
	C462.167206,403.078796 463.507080,404.320526 464.741394,407.381561 
	C484.101929,455.394958 503.602875,503.351776 523.189026,551.686157 
z"/>
<path fill="#F7F7F7" opacity="1.000000" stroke="none" 
	d="
M574.565491,603.591553 
	C526.145752,661.272705 469.487549,708.839783 405.945465,748.335144 
	C373.795013,768.318726 340.212952,785.604858 305.493073,800.702820 
	C303.541046,801.551575 301.623627,803.692688 300.784790,805.691650 
	C295.374786,818.584167 290.258942,831.600342 285.075256,844.587402 
	C284.255249,846.641846 283.573944,848.250122 280.662292,848.241699 
	C242.020630,848.129700 203.378525,848.166992 164.067169,848.166992 
	C164.067169,842.716858 164.064865,837.304382 164.067932,831.891907 
	C164.070190,827.892700 164.076660,823.893555 164.086075,819.894348 
	C164.112061,808.865112 164.106827,808.847717 174.696960,805.049377 
	C250.014145,778.035950 321.966553,743.997620 390.295013,702.289062 
	C459.933472,659.780945 522.746765,608.927612 578.493713,549.357239 
	C613.161865,512.311340 644.444397,472.605591 671.997620,429.985443 
	C675.333679,424.825165 678.481873,419.543732 681.762512,414.347107 
	C682.393860,413.346954 683.237549,412.480835 684.715393,412.031189 
	C660.140625,482.747650 623.107300,546.264832 574.565491,603.591553 
z"/>
<path fill="#F8F8F8" opacity="1.000000" stroke="none" 
	d="
M537.611206,797.481201 
	C525.934814,768.607727 514.419373,740.084106 503.075409,711.985413 
	C523.888184,692.827454 544.414612,673.933105 565.167908,654.829895 
	C591.301880,718.848267 617.556641,783.162537 643.977295,847.883179 
	C642.515442,848.008972 641.287720,848.204346 640.059570,848.207031 
	C613.744263,848.264160 587.428162,848.209778 561.114807,848.456543 
	C557.918701,848.486572 557.180115,846.925598 556.305969,844.710327 
	C550.138306,829.079895 543.952271,813.456665 537.611206,797.481201 
z"/>
</svg>