<svg xmlns="http://www.w3.org/2000/svg" viewBox="0 0 1168 1168">
  <circle cx="584" cy="584" r="584" fill="#ece8df"/>
  <g transform="translate(584 584) scale(0.62) translate(-584 -584) translate(192 0)">
    <g transform="translate(0,1168) scale(0.1,-0.1)" fill="#000000">
      <path d="M3357 8353 c-84 -206 -265 -648 -452 -1103 -212 -516 -442 -1078 -510 -1245 -65 -161 -605 -1472 -634 -1539 -12 -27 -20 -53 -19 -57 5 -14 558 227 832 363 283 140 386 199 402 230 8 16 78 185 155 376 77 191 188 464 246 607 247 610 478 1186 508 1270 33 90 57 114 64 65 1 -14 25 -77 51 -140 26 -63 75 -182 108 -265 303 -749 393 -965 399 -965 22 0 743 568 743 585 0 6 -99 251 -221 545 -122 294 -272 659 -334 810 -62 151 -134 325 -160 385 -25 61 -56 134 -67 163 l-21 52 -517 0 -517 0 -56 -137z"/>
      <path d="M7115 8393 c-167 -271 -467 -692 -723 -1013 -559 -701 -1217 -1332 -1942 -1862 -205 -149 -270 -195 -450 -315 -107 -71 -260 -169 -340 -218 -80 -48 -173 -105 -208 -126 -35 -22 -65 -39 -67 -39 -2 0 -59 -32 -127 -71 -67 -39 -157 -89 -198 -112 -41 -22 -79 -43 -85 -48 -43 -32 -917 -459 -940 -459 -3 0 -24 -9 -48 -19 -201 -93 -623 -263 -922 -372 l-240 -87 -3 -236 -2 -236 722 2 723 3 32 74 c17 41 34 81 37 90 3 9 38 99 79 201 57 143 80 188 98 197 13 7 72 33 130 57 689 292 1436 741 2049 1230 713 570 1274 1200 1792 2016 99 156 243 421 373 685 111 228 322 722 311 732 -2 2 -25 -31 -51 -74z"/>
      <path d="M5545 5369 c-66 -67 -160 -158 -210 -202 -49 -44 -112 -101 -140 -126 -37 -34 -226 -190 -264 -217 -2 -2 16 -49 39 -106 23 -57 95 -233 160 -393 66 -159 158 -384 205 -500 47 -115 119 -294 160 -397 41 -103 81 -200 90 -217 l16 -31 509 0 c280 0 511 4 514 8 3 4 -19 64 -48 133 -56 129 -225 537 -319 769 -31 74 -90 218 -132 320 -42 102 -105 255 -140 340 -107 265 -206 503 -223 544 -9 21 -30 73 -47 114 -16 42 -35 77 -40 79 -6 2 -64 -51 -130 -118z"/>
    </g>
  </g>
</svg>
